<?xml version="1.0" standalone="no"?>
<!DOCTYPE svg PUBLIC "-//W3C//DTD SVG 20010904//EN"
 "http://www.w3.org/TR/2001/REC-SVG-20010904/DTD/svg10.dtd">
<svg version="1.0" xmlns="http://www.w3.org/2000/svg"
 width="361.000000pt" height="361.000000pt" viewBox="0 0 361.000000 361.000000"
 preserveAspectRatio="xMidYMid meet">
<metadata>
Created by potrace 1.14, written by Peter Selinger 2001-2017
</metadata>
<g transform="translate(0.000000,361.000000) scale(0.100000,-0.100000)"
fill="#000000" stroke="none">
<path d="M2380 2440 c-14 -4 -69 -28 -123 -53 -123 -58 -126 -63 -123 -239 2
-77 -1 -128 -7 -128 -5 0 -36 -12 -68 -26 -55 -25 -60 -26 -91 -11 -111 52
-287 35 -396 -38 -29 -20 -38 -21 -84 -12 -35 7 -60 7 -80 -1 -17 -6 -28 -7
-28 -1 0 6 -6 7 -12 3 -10 -5 -10 -4 -1 6 14 15 6 42 -11 33 -6 -3 -6 -1 2 8
16 17 16 56 0 62 -10 4 -10 6 0 6 6 1 12 9 12 19 0 15 -2 15 -11 2 -9 -12 -9
-11 -4 5 14 38 14 67 1 56 -8 -7 -12 -5 -12 9 0 10 4 16 8 14 9 -6 3 90 -7
106 -4 6 -11 8 -16 5 -5 -3 -6 0 -4 7 7 17 -63 58 -98 58 -24 0 -181 -61 -258
-100 -35 -18 -54 -48 -63 -100 -17 -104 -15 -100 -57 -100 -36 0 -39 2 -39 28
0 21 -2 24 -10 12 -6 -9 -10 -10 -10 -3 0 6 4 14 10 18 5 3 7 12 4 20 -4 8
-11 12 -17 8 -6 -3 -7 -1 -3 6 20 31 -85 128 -176 163 -102 39 -303 12 -523
-69 -38 -14 -55 -27 -69 -54 -22 -40 -20 -47 44 -217 26 -66 39 -87 69 -109
34 -24 42 -40 90 -177 104 -299 104 -297 141 -327 37 -30 110 -49 110 -29 0 6
-5 8 -12 4 -7 -4 -8 -3 -4 5 6 8 12 9 20 2 12 -10 17 -8 103 55 13 9 20 21 16
27 -3 6 9 -1 28 -16 44 -33 126 -70 139 -62 6 3 10 1 10 -5 0 -15 101 -10 162
7 37 11 46 18 41 31 -3 9 -3 14 1 11 4 -4 12 -28 19 -55 10 -39 20 -53 52 -75
43 -29 112 -48 99 -27 -5 7 -3 8 7 3 21 -14 60 -15 53 -3 -5 7 -2 8 7 3 22
-14 60 -15 52 -2 -4 8 -2 8 9 -1 16 -13 98 -7 98 8 0 4 9 10 20 13 14 4 18 10
13 23 -4 12 -3 15 5 10 8 -5 12 0 12 13 0 29 8 27 76 -22 67 -50 106 -72 117
-69 4 1 7 -2 7 -7 0 -10 35 -7 72 8 32 12 47 37 40 64 -3 13 -1 18 6 13 7 -4
10 1 9 14 -1 15 -6 19 -22 14 -16 -4 -17 -3 -5 5 8 6 23 11 32 11 9 0 19 6 21
13 4 10 6 10 6 0 1 -15 51 -18 51 -4 0 5 8 7 18 5 24 -6 107 20 105 34 -3 15
43 5 88 -18 20 -10 48 -17 63 -16 14 2 23 0 21 -4 -2 -4 9 -7 26 -8 20 0 27 3
23 11 -5 8 -3 8 7 -1 17 -16 43 -16 33 1 -6 9 -4 9 8 -1 11 -9 51 -12 134 -11
66 1 123 4 128 7 15 8 75 8 69 0 -2 -5 17 -8 42 -8 34 0 44 3 39 13 -6 9 -4 9
7 0 17 -16 43 -17 33 -1 -5 7 -3 8 7 2 8 -5 21 -7 29 -6 9 1 31 -9 49 -23 26
-19 38 -22 48 -13 11 9 12 7 6 -8 -6 -17 -5 -18 12 -4 11 9 16 10 11 3 -4 -7
-2 -13 3 -13 6 0 11 5 11 10 0 6 5 10 11 10 5 0 8 -4 5 -9 -3 -5 5 -8 19 -8
14 0 23 2 21 6 -6 9 37 7 51 -2 6 -4 14 -1 16 5 4 10 6 10 6 1 1 -7 9 -13 19
-13 15 0 15 2 2 11 -13 9 -12 10 3 5 9 -3 24 -9 34 -13 11 -4 14 -3 8 6 -6 10
-3 11 12 3 21 -12 57 3 47 19 -3 6 -12 5 -22 -3 -15 -12 -16 -11 -3 5 10 13
17 15 27 6 15 -12 38 -3 28 12 -3 5 -10 6 -16 3 -7 -4 -8 -2 -4 4 8 14 31 6
74 -26 17 -13 32 -21 32 -17 0 4 8 1 17 -6 15 -12 16 -12 8 1 -6 12 -5 13 6 3
15 -15 33 -18 25 -5 -6 10 24 9 41 -1 7 -4 17 0 23 10 11 17 11 17 6 1 -6 -21
4 -23 23 -5 11 9 13 9 7 0 -11 -19 5 -16 20 5 10 12 12 12 9 2 -4 -11 3 -15
30 -16 23 -1 32 2 28 10 -3 6 0 5 8 -1 19 -19 34 -16 18 4 -13 15 -12 15 6 5
26 -13 50 0 70 38 17 33 12 89 -9 105 -7 6 -15 18 -19 27 -3 10 -11 18 -17 18
-5 0 -10 7 -10 15 0 7 -6 18 -13 22 -6 4 -25 27 -41 51 -16 23 -32 42 -36 42
-4 0 -11 11 -14 25 -4 14 -11 23 -16 20 -6 -3 -7 1 -4 9 3 9 9 14 13 11 7 -4
41 29 41 40 0 2 18 23 40 47 22 24 38 49 35 56 -3 7 -1 11 4 8 10 -7 63 59 54
68 -3 3 2 8 11 12 22 8 21 28 -1 20 -11 -4 -8 1 7 13 21 17 22 21 10 37 -8 9
-14 19 -12 21 9 12 -4 27 -45 53 -46 29 -49 30 -181 30 -149 0 -190 -11 -211
-57 l-12 -26 -32 31 c-18 17 -45 36 -60 41 -45 17 -282 14 -317 -4 -17 -9 -30
-19 -30 -24 0 -4 -12 -7 -27 -6 -16 1 -48 -2 -72 -7 -50 -9 -61 -1 -53 38 2
13 -2 32 -9 41 -8 9 -9 14 -2 10 17 -11 10 52 -8 65 -11 8 -11 9 4 4 19 -6 24
10 5 17 -9 4 -9 6 1 6 11 1 10 5 -5 17 -10 8 -14 13 -8 10 7 -3 14 1 18 9 3 9
0 15 -9 15 -8 0 -15 5 -15 11 0 5 4 8 9 4 5 -3 12 -1 16 5 3 6 -4 14 -17 19
-15 6 -17 10 -7 10 11 1 16 11 17 33 1 40 -10 61 -51 92 -37 28 -71 36 -107
26z m160 -390 c0 -5 -5 -10 -11 -10 -5 0 -7 5 -4 10 3 6 8 10 11 10 2 0 4 -4
4 -10z m1003 -195 c-3 -9 -8 -14 -10 -11 -3 3 -2 9 2 15 9 16 15 13 8 -4z
m-10 -32 c-7 -2 -19 -2 -25 0 -7 3 -2 5 12 5 14 0 19 -2 13 -5z m-27 -35 c4
-7 3 -8 -4 -4 -7 4 -12 2 -12 -5 0 -7 -3 -10 -6 -6 -6 5 3 27 11 27 2 0 7 -5
11 -12z m-45 -41 c-10 -9 -11 -8 -5 6 3 10 9 15 12 12 3 -3 0 -11 -7 -18z m85
-442 c-1 -8 -5 -17 -8 -21 -5 -4 -4 16 1 34 3 9 9 -1 7 -13z m-1833 -100 c-3
-9 -8 -14 -10 -11 -3 3 -2 9 2 15 9 16 15 13 8 -4z"/>
</g>
</svg>
